<svg id="Layer_1" data-name="Layer 1" xmlns="http://www.w3.org/2000/svg" viewBox="0 0 1104.29 584.57"><defs><style>.cls-1{font-size:156px;font-family:HoeflerText-Black, Hoefler Text;font-weight:800;}.cls-2{letter-spacing:-0.04em;}</style></defs><title>logo</title><ellipse cx="204.82" cy="405.17" rx="41.08" ry="57.94" transform="matrix(0.83, -0.55, 0.55, 0.83, -297.76, 97.5)"/><ellipse cx="301.53" cy="374.06" rx="57.94" ry="41.08" transform="matrix(0.05, -1, 1, 0.05, -196.32, 571.16)"/><ellipse cx="393.97" cy="454.33" rx="51.53" ry="35.95" transform="translate(-268.9 602.25) rotate(-71.7)"/><ellipse cx="154.21" cy="507.36" rx="35.95" ry="57.25" transform="translate(-403.71 143.54) rotate(-41.18)"/><path d="M311,630.17s-27.83,10.8-49.3,28.23-40.82,10.54-55.24-15.1S217.2,515.21,268,491.89s129.45,55.1,140.78,89.6c6.3,19.21,8.57,33-8.34,42.39C387.65,631,333.43,619.54,311,630.17Z" transform="translate(-107.81 -83.47)"/><ellipse cx="525.61" cy="141.34" rx="41.08" ry="57.94" transform="translate(-116.17 -47.59) rotate(-3.88)"/><ellipse cx="625.01" cy="162.25" rx="57.94" ry="41.08" transform="translate(41.84 515.82) rotate(-57.15)"/><ellipse cx="665.52" cy="277.78" rx="51.53" ry="35.95" transform="translate(-122.78 433.08) rotate(-41.99)"/><ellipse cx="431" cy="205.01" rx="35.95" ry="57.25" transform="translate(-139.96 6.3) rotate(-11.47)"/><path d="M510.27,380.2s-29.53-4.41-56.81.09S412.78,369.21,413,339.8s72.81-105.94,128.52-101,85.12,112,77.86,147.6c-4.05,19.81-8.89,32.88-28.25,32.68C576.42,418.92,535,382.08,510.27,380.2Z" transform="translate(-107.81 -83.47)"/><text class="cls-1" transform="translate(357 471.33)"><tspan class="cls-2">R</tspan><tspan x="119.18" y="0">ecipies</tspan></text></svg>